<svg xmlns="http://www.w3.org/2000/svg" xmlns:xlink="http://www.w3.org/1999/xlink" width="40" zoomAndPan="magnify" viewBox="0 0 30 30.000001" height="40" preserveAspectRatio="xMidYMid meet" version="1.2"><defs><clipPath id="6878ea3dee"><path d="M 0.484375 0 L 29.515625 0 L 29.515625 29.03125 L 0.484375 29.03125 Z M 0.484375 0 "/></clipPath><clipPath id="ff3d1f3b06"><path d="M 7.597656 7.113281 L 22.113281 7.113281 L 22.113281 21.628906 L 7.597656 21.628906 Z M 7.597656 7.113281 "/></clipPath><clipPath id="d4a1f3214a"><path d="M 9 8 L 22.113281 8 L 22.113281 21.628906 L 9 21.628906 Z M 9 8 "/></clipPath></defs><g id="3e4b4bc6db"><g clip-rule="nonzero" clip-path="url(#6878ea3dee)"><path style=" stroke:none;fill-rule:nonzero;fill:#ffffff;fill-opacity:1;" d="M 0.484375 0 L 29.515625 0 L 29.515625 29.03125 L 0.484375 29.03125 Z M 0.484375 0 "/><path style=" stroke:none;fill-rule:nonzero;fill:#ffffff;fill-opacity:1;" d="M 0.484375 0 L 29.515625 0 L 29.515625 29.03125 L 0.484375 29.03125 Z M 0.484375 0 "/></g><g clip-rule="nonzero" clip-path="url(#ff3d1f3b06)"><path style=" stroke:none;fill-rule:nonzero;fill:#f73140;fill-opacity:1;" d="M 22.113281 14.371094 C 22.113281 14.847656 22.066406 15.320312 21.972656 15.785156 C 21.878906 16.253906 21.742188 16.707031 21.558594 17.148438 C 21.378906 17.589844 21.15625 18.007812 20.890625 18.402344 C 20.625 18.800781 20.324219 19.167969 19.988281 19.503906 C 19.648438 19.839844 19.285156 20.140625 18.886719 20.40625 C 18.492188 20.671875 18.074219 20.894531 17.632812 21.078125 C 17.191406 21.257812 16.738281 21.398438 16.269531 21.488281 C 15.804688 21.582031 15.332031 21.628906 14.855469 21.628906 C 14.378906 21.628906 13.90625 21.582031 13.4375 21.488281 C 12.972656 21.398438 12.519531 21.257812 12.078125 21.078125 C 11.636719 20.894531 11.21875 20.671875 10.824219 20.40625 C 10.425781 20.140625 10.058594 19.839844 9.722656 19.503906 C 9.386719 19.167969 9.085938 18.800781 8.820312 18.402344 C 8.554688 18.007812 8.332031 17.589844 8.148438 17.148438 C 7.96875 16.707031 7.828125 16.253906 7.734375 15.785156 C 7.644531 15.320312 7.597656 14.847656 7.597656 14.371094 C 7.597656 13.894531 7.644531 13.421875 7.734375 12.953125 C 7.828125 12.488281 7.96875 12.035156 8.148438 11.59375 C 8.332031 11.152344 8.554688 10.734375 8.820312 10.339844 C 9.085938 9.941406 9.386719 9.574219 9.722656 9.238281 C 10.058594 8.902344 10.425781 8.601562 10.824219 8.335938 C 11.21875 8.070312 11.636719 7.847656 12.078125 7.664062 C 12.519531 7.484375 12.972656 7.34375 13.4375 7.253906 C 13.90625 7.160156 14.378906 7.113281 14.855469 7.113281 C 15.332031 7.113281 15.804688 7.160156 16.269531 7.253906 C 16.738281 7.34375 17.191406 7.484375 17.632812 7.664062 C 18.074219 7.847656 18.492188 8.070312 18.886719 8.335938 C 19.285156 8.601562 19.648438 8.902344 19.988281 9.238281 C 20.324219 9.574219 20.625 9.941406 20.890625 10.339844 C 21.15625 10.734375 21.378906 11.152344 21.558594 11.59375 C 21.742188 12.035156 21.878906 12.488281 21.972656 12.953125 C 22.066406 13.421875 22.113281 13.894531 22.113281 14.371094 Z M 22.113281 14.371094 "/></g><g clip-rule="nonzero" clip-path="url(#d4a1f3214a)"><path style=" stroke:none;fill-rule:nonzero;fill:#e5253c;fill-opacity:1;" d="M 22.113281 14.371094 C 22.113281 18.378906 18.863281 21.628906 14.855469 21.628906 C 12.730469 21.628906 10.816406 20.714844 9.488281 19.257812 C 10.648438 20.046875 12.050781 20.507812 13.558594 20.507812 C 17.566406 20.507812 20.816406 17.257812 20.816406 13.25 C 20.816406 11.367188 20.101562 9.652344 18.925781 8.359375 C 20.847656 9.667969 22.113281 11.871094 22.113281 14.371094 Z M 22.113281 14.371094 "/></g><path style=" stroke:none;fill-rule:nonzero;fill:#ffffff;fill-opacity:1;" d="M 12.894531 17.777344 C 12.675781 17.777344 12.488281 17.703125 12.332031 17.550781 C 12.164062 17.394531 12.082031 17.199219 12.082031 16.96875 L 12.082031 11.773438 C 12.082031 11.542969 12.164062 11.347656 12.332031 11.191406 C 12.488281 11.039062 12.675781 10.964844 12.894531 10.964844 C 13.039062 10.964844 13.171875 11 13.296875 11.074219 L 17.796875 13.671875 C 18.066406 13.828125 18.203125 14.058594 18.203125 14.371094 C 18.203125 14.683594 18.066406 14.914062 17.796875 15.070312 L 13.296875 17.667969 C 13.171875 17.742188 13.039062 17.777344 12.894531 17.777344 Z M 12.894531 17.777344 "/></g></svg>