<svg xmlns="http://www.w3.org/2000/svg" xmlns:xlink="http://www.w3.org/1999/xlink" width="40" zoomAndPan="magnify" viewBox="0 0 30 30.000001" height="40" preserveAspectRatio="xMidYMid meet" version="1.2"><defs><clipPath id="3065d765c9"><path d="M 0.484375 0 L 29.515625 0 L 29.515625 29.03125 L 0.484375 29.03125 Z M 0.484375 0 "/></clipPath><clipPath id="de0d4f1716"><path d="M 7.816406 7.332031 L 22.332031 7.332031 L 22.332031 21.847656 L 7.816406 21.847656 Z M 7.816406 7.332031 "/></clipPath></defs><g id="97cde7e7c6"><g clip-rule="nonzero" clip-path="url(#3065d765c9)"><path style=" stroke:none;fill-rule:nonzero;fill:#ffffff;fill-opacity:1;" d="M 0.484375 0 L 29.515625 0 L 29.515625 29.03125 L 0.484375 29.03125 Z M 0.484375 0 "/><path style=" stroke:none;fill-rule:nonzero;fill:#ffffff;fill-opacity:1;" d="M 0.484375 0 L 29.515625 0 L 29.515625 29.03125 L 0.484375 29.03125 Z M 0.484375 0 "/></g><g clip-rule="nonzero" clip-path="url(#de0d4f1716)"><path style=" stroke:none;fill-rule:nonzero;fill:#1b67f4;fill-opacity:1;" d="M 22.332031 14.589844 C 22.332031 15.066406 22.285156 15.539062 22.191406 16.003906 C 22.097656 16.472656 21.960938 16.925781 21.777344 17.367188 C 21.597656 17.804688 21.371094 18.226562 21.109375 18.621094 C 20.84375 19.015625 20.542969 19.382812 20.203125 19.722656 C 19.867188 20.058594 19.5 20.359375 19.105469 20.625 C 18.707031 20.886719 18.289062 21.113281 17.851562 21.292969 C 17.410156 21.476562 16.957031 21.613281 16.488281 21.707031 C 16.019531 21.800781 15.550781 21.847656 15.074219 21.847656 C 14.597656 21.847656 14.125 21.800781 13.65625 21.707031 C 13.1875 21.613281 12.734375 21.476562 12.296875 21.292969 C 11.855469 21.113281 11.4375 20.886719 11.039062 20.625 C 10.644531 20.359375 10.277344 20.058594 9.941406 19.722656 C 9.601562 19.382812 9.300781 19.015625 9.039062 18.621094 C 8.773438 18.226562 8.550781 17.804688 8.367188 17.367188 C 8.183594 16.925781 8.046875 16.472656 7.953125 16.003906 C 7.859375 15.539062 7.816406 15.066406 7.816406 14.589844 C 7.816406 14.113281 7.859375 13.640625 7.953125 13.171875 C 8.046875 12.707031 8.183594 12.25 8.367188 11.8125 C 8.550781 11.371094 8.773438 10.953125 9.039062 10.554688 C 9.300781 10.160156 9.601562 9.792969 9.941406 9.457031 C 10.277344 9.121094 10.644531 8.820312 11.039062 8.554688 C 11.4375 8.289062 11.855469 8.066406 12.296875 7.882812 C 12.734375 7.699219 13.1875 7.5625 13.65625 7.46875 C 14.125 7.378906 14.597656 7.332031 15.074219 7.332031 C 15.550781 7.332031 16.019531 7.378906 16.488281 7.46875 C 16.957031 7.5625 17.410156 7.699219 17.851562 7.882812 C 18.289062 8.066406 18.707031 8.289062 19.105469 8.554688 C 19.5 8.820312 19.867188 9.121094 20.203125 9.457031 C 20.542969 9.792969 20.84375 10.160156 21.109375 10.554688 C 21.371094 10.953125 21.597656 11.371094 21.777344 11.8125 C 21.960938 12.25 22.097656 12.707031 22.191406 13.171875 C 22.285156 13.640625 22.332031 14.113281 22.332031 14.589844 Z M 22.332031 14.589844 "/></g><path style=" stroke:none;fill-rule:evenodd;fill:#0e489f;fill-opacity:1;" d="M 11.777344 13.808594 L 13.019531 13.808594 C 13.289062 13.808594 13.511719 14.03125 13.511719 14.304688 L 13.511719 18.488281 C 13.511719 18.761719 13.289062 18.984375 13.019531 18.984375 L 11.777344 18.984375 C 11.507812 18.984375 11.285156 18.761719 11.285156 18.488281 L 11.285156 14.304688 C 11.285156 14.03125 11.507812 13.808594 11.777344 13.808594 Z M 11.777344 13.808594 "/><path style=" stroke:none;fill-rule:evenodd;fill:#0e489f;fill-opacity:1;" d="M 14.757812 13.75 L 14.972656 13.75 C 15.171875 13.566406 15.390625 13.359375 15.566406 13.15625 C 15.894531 12.78125 16.082031 12.417969 16.128906 12.109375 C 16.175781 11.800781 16.082031 11.550781 16.054688 11.304688 C 16.027344 11.0625 16.066406 10.828125 16.253906 10.707031 C 16.4375 10.585938 16.765625 10.578125 17.011719 10.753906 C 17.253906 10.933594 17.410156 11.296875 17.476562 11.695312 C 17.542969 12.097656 17.519531 12.53125 17.4375 12.882812 C 17.355469 13.214844 17.222656 13.46875 17.105469 13.75 L 18.820312 13.75 C 19.242188 13.75 19.519531 14.097656 19.4375 14.519531 L 18.722656 18.132812 C 18.644531 18.539062 18.261719 18.871094 17.859375 18.902344 L 14.699219 18.902344 C 14.304688 18.871094 13.988281 18.539062 13.988281 18.132812 L 13.988281 14.519531 C 13.988281 14.097656 14.335938 13.75 14.757812 13.75 Z M 14.757812 13.75 "/><path style=" stroke:none;fill-rule:evenodd;fill:#ffffff;fill-opacity:1;" d="M 11.1875 13.160156 L 12.425781 13.160156 C 12.699219 13.160156 12.921875 13.382812 12.921875 13.65625 L 12.921875 17.84375 C 12.921875 18.117188 12.699219 18.339844 12.425781 18.339844 L 11.1875 18.339844 C 10.914062 18.339844 10.691406 18.117188 10.691406 17.84375 L 10.691406 13.65625 C 10.691406 13.382812 10.914062 13.160156 11.1875 13.160156 Z M 11.1875 13.160156 "/><path style=" stroke:none;fill-rule:evenodd;fill:#ffffff;fill-opacity:1;" d="M 14.167969 13.105469 L 14.382812 13.105469 C 14.578125 12.921875 14.800781 12.714844 14.976562 12.511719 C 15.304688 12.132812 15.492188 11.769531 15.539062 11.464844 C 15.582031 11.15625 15.492188 10.902344 15.464844 10.660156 C 15.4375 10.414062 15.476562 10.183594 15.660156 10.058594 C 15.847656 9.9375 16.175781 9.929688 16.417969 10.109375 C 16.664062 10.285156 16.820312 10.648438 16.886719 11.050781 C 16.953125 11.449219 16.925781 11.886719 16.84375 12.234375 C 16.765625 12.570312 16.632812 12.824219 16.511719 13.105469 L 18.230469 13.105469 C 18.652344 13.105469 18.929688 13.453125 18.847656 13.875 L 18.132812 17.488281 C 18.050781 17.890625 17.671875 18.226562 17.269531 18.253906 L 17.25 18.257812 L 14.128906 18.257812 L 14.109375 18.253906 C 13.710938 18.226562 13.398438 17.890625 13.398438 17.488281 L 13.398438 13.875 C 13.398438 13.453125 13.742188 13.105469 14.167969 13.105469 Z M 14.167969 13.105469 "/></g></svg>