<svg xmlns="http://www.w3.org/2000/svg" xmlns:xlink="http://www.w3.org/1999/xlink" width="40" zoomAndPan="magnify" viewBox="0 0 30 30.000001" height="40" preserveAspectRatio="xMidYMid meet" version="1.2"><defs><clipPath id="2411e90d4f"><path d="M 0.484375 0 L 29.515625 0 L 29.515625 29.03125 L 0.484375 29.03125 Z M 0.484375 0 "/></clipPath><clipPath id="02f5f8489b"><path d="M 7.878906 7.210938 L 22.394531 7.210938 L 22.394531 21.726562 L 7.878906 21.726562 Z M 7.878906 7.210938 "/></clipPath></defs><g id="d60b960c07"><g clip-rule="nonzero" clip-path="url(#2411e90d4f)"><path style=" stroke:none;fill-rule:nonzero;fill:#ffffff;fill-opacity:1;" d="M 0.484375 0 L 29.515625 0 L 29.515625 29.03125 L 0.484375 29.03125 Z M 0.484375 0 "/><path style=" stroke:none;fill-rule:nonzero;fill:#ffffff;fill-opacity:1;" d="M 0.484375 0 L 29.515625 0 L 29.515625 29.03125 L 0.484375 29.03125 Z M 0.484375 0 "/></g><g clip-rule="nonzero" clip-path="url(#02f5f8489b)"><path style=" stroke:none;fill-rule:nonzero;fill:#278d46;fill-opacity:1;" d="M 22.394531 14.289062 C 22.394531 18.195312 19.144531 21.363281 15.136719 21.363281 C 13.945312 21.367188 12.824219 21.097656 11.769531 20.558594 C 11.765625 20.558594 11.761719 20.558594 11.757812 20.5625 L 9.570312 21.449219 C 8.886719 21.726562 8.195312 21.066406 8.46875 20.390625 L 9.257812 18.4375 C 8.335938 17.199219 7.878906 15.816406 7.878906 14.289062 C 7.878906 10.378906 11.128906 7.210938 15.136719 7.210938 C 19.144531 7.210938 22.394531 10.378906 22.394531 14.289062 Z M 22.394531 14.289062 "/></g><path style=" stroke:none;fill-rule:nonzero;fill:#ffffff;fill-opacity:1;" d="M 21.453125 14.289062 C 21.453125 14.691406 21.410156 15.09375 21.332031 15.488281 C 21.25 15.886719 21.128906 16.273438 20.972656 16.644531 C 20.8125 17.019531 20.617188 17.375 20.386719 17.710938 C 20.15625 18.046875 19.894531 18.355469 19.601562 18.644531 C 19.308594 18.929688 18.988281 19.183594 18.644531 19.410156 C 18.300781 19.632812 17.9375 19.824219 17.554688 19.976562 C 17.171875 20.132812 16.773438 20.25 16.367188 20.328125 C 15.960938 20.40625 15.550781 20.445312 15.136719 20.445312 C 14.722656 20.445312 14.3125 20.40625 13.90625 20.328125 C 13.496094 20.25 13.101562 20.132812 12.71875 19.976562 C 12.335938 19.824219 11.972656 19.632812 11.628906 19.410156 C 11.285156 19.183594 10.964844 18.929688 10.671875 18.644531 C 10.378906 18.355469 10.117188 18.046875 9.886719 17.710938 C 9.65625 17.375 9.460938 17.019531 9.300781 16.644531 C 9.144531 16.273438 9.023438 15.886719 8.941406 15.488281 C 8.863281 15.09375 8.820312 14.691406 8.820312 14.289062 C 8.820312 13.882812 8.863281 13.484375 8.941406 13.085938 C 9.023438 12.691406 9.144531 12.304688 9.300781 11.933594 C 9.460938 11.558594 9.65625 11.203125 9.886719 10.867188 C 10.117188 10.53125 10.378906 10.21875 10.671875 9.933594 C 10.964844 9.648438 11.285156 9.394531 11.628906 9.167969 C 11.972656 8.945312 12.335938 8.753906 12.71875 8.597656 C 13.101562 8.445312 13.496094 8.328125 13.90625 8.25 C 14.3125 8.167969 14.722656 8.128906 15.136719 8.128906 C 15.550781 8.128906 15.960938 8.167969 16.367188 8.25 C 16.773438 8.328125 17.171875 8.445312 17.554688 8.597656 C 17.9375 8.753906 18.300781 8.945312 18.644531 9.167969 C 18.988281 9.394531 19.308594 9.648438 19.601562 9.933594 C 19.894531 10.21875 20.15625 10.53125 20.386719 10.867188 C 20.617188 11.203125 20.8125 11.558594 20.972656 11.933594 C 21.128906 12.304688 21.25 12.691406 21.332031 13.085938 C 21.410156 13.484375 21.453125 13.882812 21.453125 14.289062 Z M 21.453125 14.289062 "/><path style=" stroke:none;fill-rule:nonzero;fill:#278d46;fill-opacity:1;" d="M 20.566406 14.289062 C 20.566406 14.636719 20.53125 14.980469 20.460938 15.320312 C 20.394531 15.664062 20.289062 15.992188 20.152344 16.316406 C 20.015625 16.636719 19.851562 16.941406 19.652344 17.230469 C 19.453125 17.519531 19.230469 17.789062 18.976562 18.03125 C 18.722656 18.277344 18.449219 18.5 18.152344 18.691406 C 17.855469 18.886719 17.542969 19.046875 17.214844 19.179688 C 16.886719 19.3125 16.546875 19.414062 16.195312 19.484375 C 15.847656 19.550781 15.492188 19.585938 15.136719 19.585938 C 14.78125 19.585938 14.425781 19.550781 14.078125 19.484375 C 13.726562 19.414062 13.386719 19.3125 13.058594 19.179688 C 12.730469 19.046875 12.414062 18.886719 12.121094 18.691406 C 11.824219 18.5 11.546875 18.277344 11.296875 18.03125 C 11.042969 17.789062 10.820312 17.519531 10.621094 17.230469 C 10.421875 16.941406 10.253906 16.636719 10.121094 16.316406 C 9.984375 15.992188 9.878906 15.664062 9.808594 15.320312 C 9.742188 14.980469 9.707031 14.636719 9.707031 14.289062 C 9.707031 13.941406 9.742188 13.597656 9.808594 13.253906 C 9.878906 12.914062 9.984375 12.582031 10.121094 12.261719 C 10.253906 11.941406 10.421875 11.636719 10.621094 11.347656 C 10.820312 11.058594 11.042969 10.789062 11.296875 10.542969 C 11.546875 10.296875 11.824219 10.078125 12.121094 9.886719 C 12.414062 9.691406 12.730469 9.527344 13.058594 9.394531 C 13.386719 9.261719 13.726562 9.164062 14.078125 9.09375 C 14.425781 9.027344 14.78125 8.992188 15.136719 8.992188 C 15.492188 8.992188 15.847656 9.027344 16.195312 9.09375 C 16.546875 9.164062 16.886719 9.261719 17.214844 9.394531 C 17.542969 9.527344 17.855469 9.691406 18.152344 9.886719 C 18.449219 10.078125 18.722656 10.296875 18.976562 10.542969 C 19.230469 10.789062 19.453125 11.058594 19.652344 11.347656 C 19.851562 11.636719 20.015625 11.941406 20.152344 12.261719 C 20.289062 12.582031 20.394531 12.914062 20.460938 13.253906 C 20.53125 13.597656 20.566406 13.941406 20.566406 14.289062 Z M 20.566406 14.289062 "/><path style=" stroke:none;fill-rule:nonzero;fill:#ffffff;fill-opacity:1;" d="M 14.4375 12.558594 L 14.226562 11.6875 C 14.203125 11.589844 14.160156 11.496094 14.09375 11.414062 C 14.03125 11.332031 13.953125 11.265625 13.859375 11.21875 C 13.765625 11.167969 13.664062 11.140625 13.558594 11.132812 C 13.453125 11.125 13.351562 11.136719 13.253906 11.171875 L 12.765625 11.34375 C 12.601562 11.402344 12.472656 11.503906 12.382812 11.648438 C 12.292969 11.792969 12.257812 11.949219 12.277344 12.117188 C 12.449219 13.460938 13.230469 16.71875 16.828125 17.433594 C 17.148438 17.496094 17.402344 17.398438 17.585938 17.136719 L 17.867188 16.742188 C 17.984375 16.578125 18.023438 16.394531 17.988281 16.199219 C 17.949219 16.003906 17.847656 15.847656 17.679688 15.734375 L 17.675781 15.730469 L 17.058594 15.320312 C 16.921875 15.230469 16.769531 15.1875 16.605469 15.195312 C 16.441406 15.203125 16.292969 15.257812 16.167969 15.363281 C 16.039062 15.464844 15.894531 15.519531 15.730469 15.527344 C 15.566406 15.535156 15.417969 15.496094 15.28125 15.40625 C 14.90625 15.160156 14.398438 14.753906 14.070312 14.1875 C 13.902344 13.902344 13.925781 13.628906 14.136719 13.371094 L 14.296875 13.179688 C 14.445312 12.996094 14.496094 12.789062 14.4375 12.558594 Z M 14.4375 12.558594 "/></g></svg>